<svg xmlns="http://www.w3.org/2000/svg" width="800" height="800" viewBox="0 0 800 800" fill="none">
  <defs>
    <linearGradient id="bg" x1="0" y1="0" x2="1" y2="1"><stop offset="0%" stop-color="#0B1120"/><stop offset="100%" stop-color="#060910"/></linearGradient>
    <linearGradient id="g1" x1="0" y1="0" x2="1" y2="1"><stop offset="0%" stop-color="#00AB44"/><stop offset="100%" stop-color="#10B981"/></linearGradient>
    <linearGradient id="g2" x1="0" y1="0" x2="1" y2="1"><stop offset="0%" stop-color="#6366F1"/><stop offset="100%" stop-color="#7C3AED"/></linearGradient>
  </defs>
  <rect width="800" height="800" rx="120" fill="url(#bg)"/>
  <circle cx="400" cy="400" r="200" stroke="#00AB44" stroke-width="1.5" opacity="0.12"/>
  <!-- Line chart -->
  <polyline points="220,500 280,420 340,460 400,280 460,350 520,200 580,320" stroke="url(#g1)" stroke-width="8" stroke-linecap="round" stroke-linejoin="round" fill="none"/>
  <polyline points="220,500 280,420 340,460 400,280 460,350 520,200 580,320" stroke="url(#g1)" stroke-width="3" stroke-linecap="round" fill="none" opacity="0.4"/>
  <!-- Area fill -->
  <path d="M220,500 L280,420 L340,460 L400,280 L460,350 L520,200 L580,320 L580,550 L220,550 Z" fill="url(#g1)" opacity="0.08"/>
  <!-- Data points -->
  <circle cx="280" cy="420" r="6" fill="#10B981"/><circle cx="340" cy="460" r="6" fill="#10B981"/>
  <circle cx="400" cy="280" r="8" fill="#34D399"/><circle cx="460" cy="350" r="6" fill="#10B981"/>
  <circle cx="520" cy="200" r="8" fill="#34D399"/><circle cx="580" cy="320" r="6" fill="#10B981"/>
  <!-- Purple accent bar -->
  <rect x="630" y="240" rx="6" width="20" height="260" fill="url(#g2)" opacity="0.15"/>
  <rect x="650" y="280" rx="6" width="20" height="200" fill="url(#g2)" opacity="0.1"/>
</svg>